<svg xmlns="http://www.w3.org/2000/svg" xmlns:xlink="http://www.w3.org/1999/xlink" viewBox="0 0 850 850"><defs><linearGradient id="a" x1="737.78" y1="723.46" x2="737.78" y2="60.46" gradientUnits="userSpaceOnUse"><stop offset="0" stop-color="#ecd4b2"/><stop offset="0.14" stop-color="#d5a983"/><stop offset="0.15" stop-color="#d4a882"/><stop offset="0.3" stop-color="#c19676"/><stop offset="0.41" stop-color="#ba9071"/><stop offset="0.62" stop-color="#d9b08c"/><stop offset="0.84" stop-color="#d5a983"/><stop offset="0.88" stop-color="#d8ae88"/><stop offset="0.93" stop-color="#e0bc97"/><stop offset="0.98" stop-color="#edd4b0"/><stop offset="1" stop-color="#f3debb"/></linearGradient><linearGradient id="b" x1="351.54" y1="775.77" x2="351.54" y2="25" xlink:href="#a"/><linearGradient id="c" x1="425.35" y1="774.98" x2="425.35" y2="25" xlink:href="#a"/><linearGradient id="d" x1="262.98" y1="168.76" x2="587.73" y2="731.25" xlink:href="#a"/></defs><rect fill="#f4e6d4" width="850" height="850"/><path fill="url(#a)" d="M740.4,343l1.5-1.5-5.4-5.4c-2.3.5-1.5,3.5-2.8,4.6l3.9,4a6.6,6.6,0,0,1,2.8-1.6S740.3,343,740.4,343Z"/><path fill="url(#b)" d="M141.4,309.7c2.6-.7,3.6.6,6.3.5.1,0,1.6-1.8,1.6-1.8l276.1-276L556.6,163.7l.4-.2a21.5,21.5,0,0,1,5.6-1.2L427.2,26.9,425.4,25,140.5,309.9Z"/><path fill="url(#c)" d="M753.8,353.5c-1.2.2-1,.8-2.2,1.8s-.9,1.2-1.4,2L792.9,400,425.4,767.5,57.8,400l66.4-66.4a8.1,8.1,0,0,0-3-2.1l-1.4-.4-.4-.2L50.4,400l375,375L800.3,400Z"/><path fill="url(#d)" d="M427.2,76.9,425.4,75,50.4,450l45.9,46,.4-.4c.6-1.6,1.3-3.3,1.8-4.9L57.8,450,425.4,82.5,792.9,450,425.4,817.6,274,666.2a19,19,0,0,0-3.8,3.7L425.4,825,800.3,450Z"/><g fill="#6d1d1d"><path d="M807.3,274.8a20,20,0,1,1-3.1-28.1A20,20,0,0,1,807.3,274.8Z"/><path d="M770.1,218.4a9.9,9.9,0,1,1,8.7-10.9A9.8,9.8,0,0,1,770.1,218.4Z"/><path d="M709.9,661.3a14.6,14.6,0,0,1,20-4.7,14.5,14.5,0,1,1-20,4.7Z"/><path d="M705.3,236.1a6.4,6.4,0,0,1,2.9,12.5,6.4,6.4,0,0,1-7.7-4.8A6.5,6.5,0,0,1,705.3,236.1Z"/><path d="M790.8,614.9a9.6,9.6,0,1,1,11.5-7.2A9.5,9.5,0,0,1,790.8,614.9Z"/><path d="M559.6,807.4a9.6,9.6,0,1,1,13.4-2.2A9.6,9.6,0,0,1,559.6,807.4Z"/><path d="M765.1,555.8a14.4,14.4,0,1,1,12.7-15.9A14.4,14.4,0,0,1,765.1,555.8Z"/><path d="M89.9,522.6A17.1,17.1,0,1,1,74,504.5,17.1,17.1,0,0,1,89.9,522.6Z"/><path d="M306,733.5a19.9,19.9,0,1,1-25.3-12.4A20,20,0,0,1,306,733.5Z"/><path d="M232.4,744.3a9.8,9.8,0,1,1-4.5-13.2A9.8,9.8,0,0,1,232.4,744.3Z"/><path d="M78.9,611.6a12.4,12.4,0,1,1-11.6-13.2A12.6,12.6,0,0,1,78.9,611.6Z"/><path d="M178.9,130.7a19.9,19.9,0,1,1,21.6-18.1A19.9,19.9,0,0,1,178.9,130.7Z"/><path d="M249.8,111.8a10.6,10.6,0,1,1,11.4-9.6A10.6,10.6,0,0,1,249.8,111.8Z"/></g><g fill="#b68e8e"><path d="M731.9,306.1a9.7,9.7,0,0,1-10.8-8.7,9.8,9.8,0,1,1,10.8,8.7Z"/><path d="M670.7,697a9.6,9.6,0,1,1-8.7-10.4A9.6,9.6,0,0,1,670.7,697Z"/><path d="M725.2,586.1a17.4,17.4,0,0,1-24,25.3,17.4,17.4,0,0,1,24-25.3Z"/><path d="M172.4,174.6a9.7,9.7,0,0,1,11.8,7.3,9.9,9.9,0,1,1-11.8-7.3Z"/><path d="M345.4,790.3a14.5,14.5,0,1,1,4.7,20A14.6,14.6,0,0,1,345.4,790.3Z"/><path d="M125.5,588.2a12.4,12.4,0,1,1-5.9,16.6A12.5,12.5,0,0,1,125.5,588.2Z"/><path d="M201,676.1a9.9,9.9,0,1,1,13.9,1.2A9.9,9.9,0,0,1,201,676.1Z"/></g><g fill="#5a5a5a"><path d="M457,387.9a4.8,4.8,0,0,1,3.5,1.6,5.3,5.3,0,0,1,1.5,3.7,5,5,0,0,1-1.6,3.6,102.5,102.5,0,0,1-15.9,11.8,121.3,121.3,0,0,1-17,8.9,129.1,129.1,0,0,1-19.1,6.4c-7.2,1.9-13.4,3.3-18.6,4.3s-11.5,1.9-19,2.7-13.2,1.3-17.1,1.5l-15.7,1-13,.8a17.2,17.2,0,0,1-3.9.4,5.2,5.2,0,0,1-3.6-1.4,5.6,5.6,0,0,1-1.7-3.5,4.6,4.6,0,0,1,1.2-3.5,4.8,4.8,0,0,1,3.5-1.8l3.4-.4a22.8,22.8,0,0,0,12.5-5.7,23.9,23.9,0,0,0,7.5-11.5c.9-5.5-2.1-9.6-8.9-12.4q-3.9-1.5-10.5,4.5a122.1,122.1,0,0,0-22.4,32.9,3,3,0,0,0-.2,1q-16.2,93.6-30.1,98.8a10.9,10.9,0,0,1-2.6.3,8.1,8.1,0,0,1-5.5-2.1c-3-3.1-3.2-10.4-.7-21.8a269.1,269.1,0,0,1,11.6-38.1c5.3-14,11-27.3,17.1-40,2.8-15.4,5.3-31.2,7.7-47.4a5,5,0,0,1,8.2-3.5,5.2,5.2,0,0,1,2,4.9c-.8,5.3-1.7,10.9-2.6,16.8-.1.7.1,1,.5,1.2a1.3,1.3,0,0,0,1.3-.6q16.2-21.9,30-16.5a21.3,21.3,0,0,1,12.1,9.1,19.4,19.4,0,0,1,2.9,14.6,26.4,26.4,0,0,1-4.9,11.4,1.7,1.7,0,0,0-.1,1.7,1.2,1.2,0,0,0,1.1.8c9.7-.6,18.5-1.5,26.4-2.6s16.8-2.8,26.6-5.1a127.4,127.4,0,0,0,27.8-9.9,93.7,93.7,0,0,0,22.7-15.5A4.5,4.5,0,0,1,457,387.9ZM272,515.1a256.8,256.8,0,0,0,9.6-34.3A230,230,0,0,0,272,515.1Z"/><path d="M584.2,385.8a5,5,0,0,1,3.7,1.5,4.6,4.6,0,0,1,1.6,3.6,4.9,4.9,0,0,1-1.6,3.7c-1.4,1.6-3.3,3.5-5.7,5.8s-6.9,6-13.4,11.1A187.2,187.2,0,0,1,549.6,425a130,130,0,0,1-22.1,10.7,66.6,66.6,0,0,1-23.6,4.8,44.4,44.4,0,0,1-15.9-3c-11.7-4.4-20.4-14.3-26-29.6s-7.7-34.6-6.3-57.9a3.8,3.8,0,0,0-1.4-2.6,3.6,3.6,0,0,0-2.7-.8l-16.9,1.3-14.8,1.2-11.5.8-7.9.5h-3.4a4.3,4.3,0,0,1-3.7-1.2,5,5,0,0,1-1.6-3.6,5.7,5.7,0,0,1,1.4-3.8,4.5,4.5,0,0,1,3.5-1.5l3.2-.2,8.3-.6,12-.9,15.5-1.2,17.7-1.3c2.3-.2,3.7-2,4.3-5.4a225.7,225.7,0,0,1,4.6-23.7c1.9-7.7,4.1-15.1,6.5-22.2a74.2,74.2,0,0,1,8.6-17.4c3.2-4.6,6.5-7.2,9.9-7.9,5.2-.9,9.3,1.8,12.3,7.9,2,3.9,1.8,11.6-.6,23.2A272,272,0,0,1,487.6,330a5.6,5.6,0,0,0-.3,2.4,3.1,3.1,0,0,0,.7,1.2,1.7,1.7,0,0,0,1,.3q44.8-2.7,64.7-2.7a4.9,4.9,0,0,1,3.6,1.5,5.3,5.3,0,0,1,1.5,3.6,5.3,5.3,0,0,1-1.5,3.7,4.9,4.9,0,0,1-3.6,1.5q-30.6,0-68.2,3a5.1,5.1,0,0,0-2.5.4,3.5,3.5,0,0,0-1.2,1.7q-4.9,14.4-14.7,39c3.2,23.1,11.5,37.2,24.7,42.3a32.8,32.8,0,0,0,12.3,2.2,47.4,47.4,0,0,0,13-1.8,90.4,90.4,0,0,0,13.3-4.9,129,129,0,0,0,12.9-6.6c3.9-2.4,7.8-5,11.8-7.9s7.4-5.4,10.2-7.7,5.5-4.6,8-7,4.4-4,5.3-4.9l2.1-1.9A4.3,4.3,0,0,1,584.2,385.8ZM465.5,361.1c1.2,0,2.6-2.4,4.4-7.2s2.3-7.7,1.5-8.6a4.4,4.4,0,0,0-5.1.4q-1.1.9-1.5,4.8a44.3,44.3,0,0,0-.3,7.2C464.7,360,465,361.1,465.5,361.1Zm2.6-30.5c-.6,3-.1,4.5,1.3,4.5l3.2-.2a3.7,3.7,0,0,0,3.5-3.4c11.9-34.7,16.6-54.5,14.3-59.3a2.2,2.2,0,0,0-1.6-1.5,1.8,1.8,0,0,0-1.9.5c-3,3.3-6.4,10.5-10.2,21.7A199.6,199.6,0,0,0,468.1,330.6Z"/></g></svg>