<svg xmlns="http://www.w3.org/2000/svg" xmlns:xlink="http://www.w3.org/1999/xlink" viewBox="0 0 850 850"><defs><linearGradient id="a" x1="756.95" y1="742.12" x2="756.95" y2="37.68" gradientUnits="userSpaceOnUse"><stop offset="0" stop-color="#ecd4b2"/><stop offset="0.14" stop-color="#d5a983"/><stop offset="0.15" stop-color="#d4a882"/><stop offset="0.3" stop-color="#c19676"/><stop offset="0.41" stop-color="#ba9071"/><stop offset="0.62" stop-color="#d9b08c"/><stop offset="0.84" stop-color="#d5a983"/><stop offset="0.88" stop-color="#d8ae88"/><stop offset="0.93" stop-color="#e0bc97"/><stop offset="0.98" stop-color="#edd4b0"/><stop offset="1" stop-color="#f3debb"/></linearGradient><linearGradient id="b" x1="346.57" y1="797.69" x2="346.57" y2="0" xlink:href="#a"/><linearGradient id="c" x1="425" y1="796.86" x2="425" y2="0" xlink:href="#a"/><linearGradient id="d" x1="252.47" y1="152.75" x2="597.52" y2="750.39" xlink:href="#a"/></defs><polygon fill="#f4e6d4" points="823.6 398.6 425 0 26.7 398.2 53.5 425 26.7 451.8 425 850 823.6 451.4 797.2 425 823.6 398.6"/><path fill="url(#a)" d="M759.7,337.9l1.6-1.6-5.8-5.8c-2.4.5-1.5,3.7-2.9,5l4.2,4.2c.9-1.1,1.8-1.2,2.9-1.7S759.7,337.9,759.7,337.9Z"/><path fill="url(#b)" d="M123.3,302.5c2.8-.8,3.8.6,6.7.5.1,0,1.7-1.8,1.7-1.8L425,7.9,564.5,147.4l.4-.2a29.8,29.8,0,0,1,5.9-1.4L427,2l-2-2L122.3,302.7Z"/><path fill="url(#c)" d="M774,349c-1.3.2-1.1.9-2.4,1.9s-.9,1.3-1.5,2.1l45.4,45.4L425,789,34.5,398.4,105,327.9a8.4,8.4,0,0,0-3.1-2.2l-1.5-.5-.4-.2L26.6,398.4,425,796.9,823.4,398.4Z"/><path fill="url(#d)" d="M427,55.1l-2-2L26.6,451.6l48.8,48.8c.1-.1.3-.2.4-.4s1.3-3.4,1.9-5.2L34.5,451.6,425,61,815.5,451.6,425,842.1,264.1,681.2a29.6,29.6,0,0,0-3.9,4L425,850,823.4,451.6Z"/><g fill="#6d1d1d"><path d="M830.8,265.4a21.2,21.2,0,1,1-3.3-29.8A21.2,21.2,0,0,1,830.8,265.4Z"/><path d="M791.2,205.5a10.5,10.5,0,1,1,9.3-11.6A10.4,10.4,0,0,1,791.2,205.5Z"/><path d="M727.3,676a15.5,15.5,0,0,1,21.2-5,15.4,15.4,0,1,1-16.2,26.2A15.5,15.5,0,0,1,727.3,676Z"/><path d="M722.4,224.3a6.9,6.9,0,0,1,8.2,5.1,6.8,6.8,0,1,1-8.2-5.1Z"/><path d="M813.3,626.8a10.3,10.3,0,0,1-7.7-12.2,10.2,10.2,0,1,1,19.9,4.6A10.2,10.2,0,0,1,813.3,626.8Z"/><path d="M567.7,831.3a10.1,10.1,0,0,1-2.4-14.2,10.2,10.2,0,1,1,2.4,14.2Z"/><path d="M786,564a15.3,15.3,0,1,1,13.5-16.9A15.4,15.4,0,0,1,786,564Z"/><path d="M68.6,528.7a18.1,18.1,0,1,1-17-19.3A18.3,18.3,0,0,1,68.6,528.7Z"/><path d="M298.2,752.8a21.2,21.2,0,1,1-26.9-13.2A21.3,21.3,0,0,1,298.2,752.8Z"/><path d="M220,764.3a10.5,10.5,0,1,1-4.8-14A10.5,10.5,0,0,1,220,764.3Z"/><path d="M56.8,623.3a13.2,13.2,0,1,1-12.3-14A13.1,13.1,0,0,1,56.8,623.3Z"/><path d="M163.1,112.3a21.2,21.2,0,1,1,23-19.2A21.3,21.3,0,0,1,163.1,112.3Z"/><path d="M238.4,92.2A11.2,11.2,0,0,1,228.3,80a11.2,11.2,0,1,1,10.1,12.2Z"/></g><g fill="#b68e8e"><path d="M750.7,298.7a10.5,10.5,0,1,1,9.3-11.6A10.4,10.4,0,0,1,750.7,298.7Z"/><path d="M685.7,714a10.2,10.2,0,1,1-9.2-11A10.1,10.1,0,0,1,685.7,714Z"/><path d="M743.6,596.2a18.5,18.5,0,1,1-26.2.7A18.5,18.5,0,0,1,743.6,596.2Z"/><path d="M156.2,158.9a10.5,10.5,0,1,1-7.8,12.6A10.5,10.5,0,0,1,156.2,158.9Z"/><path d="M340.1,813.2a15.4,15.4,0,1,1,26.1,16.2,15.4,15.4,0,1,1-26.1-16.2Z"/><path d="M106.4,598.4a13.2,13.2,0,1,1-6.2,17.6A13.2,13.2,0,0,1,106.4,598.4Z"/><path d="M186.6,691.8A10.5,10.5,0,0,1,188,677a10.5,10.5,0,0,1,13.4,16.1A10.6,10.6,0,0,1,186.6,691.8Z"/></g><g fill="#5a5a5a"><path d="M458.6,385.5a5.7,5.7,0,0,1,3.8,1.8,5.6,5.6,0,0,1,1.5,3.9,5.2,5.2,0,0,1-1.6,3.8,109.2,109.2,0,0,1-16.9,12.6,151.6,151.6,0,0,1-18.1,9.5,142,142,0,0,1-20.3,6.7c-7.7,2.1-14.3,3.6-19.8,4.6s-12.2,2-20.2,2.8-14,1.4-18.1,1.7l-16.7,1-13.8.9a28.5,28.5,0,0,1-4.1.4,5.4,5.4,0,0,1-3.9-1.5,5.9,5.9,0,0,1-1.8-3.7,4.9,4.9,0,0,1,1.3-3.8,5.3,5.3,0,0,1,3.7-1.8l3.6-.5a24.9,24.9,0,0,0,13.3-6,24.6,24.6,0,0,0,7.9-12.3c1-5.8-2.1-10.2-9.4-13.1-2.7-1.1-6.5.5-11.2,4.8a127.2,127.2,0,0,0-23.7,35,1.6,1.6,0,0,0-.2,1c-11.6,66.3-22.2,101.3-32.1,104.9a7.7,7.7,0,0,1-2.7.4,7.9,7.9,0,0,1-5.8-2.3q-4.8-4.9-.9-23.1a308.9,308.9,0,0,1,12.4-40.4c5.7-15,11.7-29.1,18.2-42.6,3-16.4,5.7-33.2,8.2-50.4a5,5,0,0,1,3.2-4.6,5.1,5.1,0,0,1,5.5.9,5.3,5.3,0,0,1,2.1,5.2c-.8,5.7-1.8,11.6-2.7,17.9-.2.7,0,1.1.5,1.2s.9,0,1.4-.6c11.5-15.5,22.1-21.4,31.8-17.5a22.9,22.9,0,0,1,12.9,9.7,20.8,20.8,0,0,1,3.1,15.5,28.4,28.4,0,0,1-5.2,12.1,1.5,1.5,0,0,0-.2,1.7,1.3,1.3,0,0,0,1.3,1c10.2-.7,19.6-1.6,28-2.8s17.8-3,28.3-5.4a137.9,137.9,0,0,0,29.5-10.6,97.5,97.5,0,0,0,24.1-16.4A5.2,5.2,0,0,1,458.6,385.5ZM262,520.7a255.3,255.3,0,0,0,10.2-36.4A259.1,259.1,0,0,0,262,520.7Z"/><path d="M593.8,383.4a5.6,5.6,0,0,1,3.9,1.5,4.9,4.9,0,0,1,1.7,3.9,5,5,0,0,1-1.7,3.9c-1.5,1.7-3.5,3.7-6.1,6.2s-7.3,6.3-14.1,11.7A240.3,240.3,0,0,1,557.1,425a144.3,144.3,0,0,1-23.6,11.3,70.6,70.6,0,0,1-25,5.1,47.2,47.2,0,0,1-16.9-3.1c-12.5-4.7-21.7-15.2-27.7-31.4s-8.2-36.8-6.6-61.6a4.6,4.6,0,0,0-1.5-2.7,3.8,3.8,0,0,0-2.9-.9L435,343.1l-15.8,1.2-12.2.9-8.4.5-3.2.2H395a4.8,4.8,0,0,1-3.9-1.4,5,5,0,0,1-1.7-3.8,5.9,5.9,0,0,1,1.5-4,4.6,4.6,0,0,1,3.7-1.6l3.3-.2,8.9-.7,12.7-.9,16.5-1.2,18.8-1.4c2.5-.3,4-2.2,4.5-5.8,1.3-8.6,2.9-17,4.9-25.2s4.4-16,7-23.5a76.7,76.7,0,0,1,9.1-18.6c3.4-4.8,6.9-7.6,10.5-8.3,5.5-1,9.9,1.8,13.1,8.3,2.1,4.2,1.9,12.4-.6,24.7A314.8,314.8,0,0,1,491.2,324a4.3,4.3,0,0,0-.3,2.6,2.2,2.2,0,0,0,.7,1.3,1.7,1.7,0,0,0,1,.3q47.7-2.8,68.7-2.9a4.9,4.9,0,0,1,3.9,1.7,5.4,5.4,0,0,1,1.5,3.8,5.8,5.8,0,0,1-1.5,3.9,5.1,5.1,0,0,1-3.9,1.6c-21.6,0-45.8,1.1-72.4,3.1a5.1,5.1,0,0,0-2.6.5c-.5.2-.9.9-1.4,1.8-3.4,10.2-8.6,24-15.6,41.5,3.5,24.5,12.2,39.5,26.3,44.9a36.8,36.8,0,0,0,13.1,2.3,49.4,49.4,0,0,0,13.8-1.9,99.4,99.4,0,0,0,14.2-5.2,133,133,0,0,0,13.6-7.1c4.2-2.5,8.4-5.2,12.6-8.3s7.8-5.8,10.8-8.2,5.8-4.9,8.5-7.4l5.7-5.2L590,385A4.9,4.9,0,0,1,593.8,383.4ZM467.7,357.1c1.2,0,2.8-2.5,4.6-7.7s2.4-8.2,1.6-9.1a4.7,4.7,0,0,0-5.4.4c-.7.7-1.2,2.4-1.6,5.1a51,51,0,0,0-.3,7.7C466.8,355.9,467.1,357.1,467.7,357.1Zm2.7-32.4c-.6,3.2-.1,4.7,1.4,4.7a20,20,0,0,0,3.4-.2c2-.1,3.3-1.3,3.7-3.5q18.9-55.3,15.2-63.1a2.2,2.2,0,0,0-1.7-1.5,2,2,0,0,0-2.1.5c-3.1,3.5-6.8,11.1-10.8,23A215.6,215.6,0,0,0,470.4,324.7Z"/></g></svg>